<?xml version="1.0" encoding="UTF-8" standalone="no"?>
<!-- Created with Inkscape (http://www.inkscape.org/) -->

<svg
   width="251.85751mm"
   height="273.33002mm"
   viewBox="0 0 251.85751 273.33002"
   version="1.1"
   id="svg1"
   inkscape:version="1.3.2 (091e20e, 2023-11-25, custom)"
   sodipodi:docname="star_of_david.svg"
   xmlns:inkscape="http://www.inkscape.org/namespaces/inkscape"
   xmlns:sodipodi="http://sodipodi.sourceforge.net/DTD/sodipodi-0.dtd"
   xmlns:xlink="http://www.w3.org/1999/xlink"
   xmlns="http://www.w3.org/2000/svg"
   xmlns:svg="http://www.w3.org/2000/svg">
  <sodipodi:namedview
     id="namedview1"
     pagecolor="#ffffff"
     bordercolor="#000000"
     borderopacity="0.25"
     inkscape:showpageshadow="2"
     inkscape:pageopacity="0.0"
     inkscape:pagecheckerboard="0"
     inkscape:deskcolor="#d1d1d1"
     inkscape:document-units="mm"
     inkscape:zoom="0.65834035"
     inkscape:cx="573.41161"
     inkscape:cy="451.89392"
     inkscape:window-width="1920"
     inkscape:window-height="991"
     inkscape:window-x="-9"
     inkscape:window-y="-9"
     inkscape:window-maximized="1"
     inkscape:current-layer="layer1" />
  <defs
     id="defs1">
    <linearGradient
       id="linearGradient3">
      <stop
         style="stop-color:#1c289f;stop-opacity:1;"
         offset="0"
         id="stop7" />
      <stop
         style="stop-color:#8490ff;stop-opacity:0.99196786;"
         offset="0.51237625"
         id="stop8" />
      <stop
         style="stop-color:#b00ae8;stop-opacity:0.98431373;"
         offset="1"
         id="stop9" />
    </linearGradient>
    <linearGradient
       id="linearGradient3-1">
      <stop
         style="stop-color:#187e56;stop-opacity:1;"
         offset="0"
         id="stop3" />
      <stop
         style="stop-color:#22a50d;stop-opacity:1;"
         offset="0.51237625"
         id="stop5" />
      <stop
         style="stop-color:#60d009;stop-opacity:0.98431373;"
         offset="1"
         id="stop4" />
    </linearGradient>
    <linearGradient
       inkscape:collect="always"
       xlink:href="#linearGradient3"
       id="linearGradient4"
       x1="-24.627733"
       y1="132.39163"
       x2="178.95688"
       y2="0.53537464"
       gradientUnits="userSpaceOnUse" />
    <linearGradient
       inkscape:collect="always"
       xlink:href="#linearGradient3-1"
       id="linearGradient7"
       x1="251.2041"
       y1="540.56104"
       x2="384.29733"
       y2="191.77185"
       gradientUnits="userSpaceOnUse" />
    <filter
       style="color-interpolation-filters:sRGB"
       inkscape:label="Drop Shadow"
       id="filter107"
       x="-0.056166545"
       y="-0.049415381"
       width="1.1173062"
       height="1.1039782">
      <feFlood
         result="flood"
         in="SourceGraphic"
         flood-opacity="0.486275"
         flood-color="rgb(0,0,0)"
         id="feFlood106" />
      <feGaussianBlur
         result="blur"
         in="SourceGraphic"
         stdDeviation="8.000000"
         id="feGaussianBlur106" />
      <feOffset
         result="offset"
         in="blur"
         dx="1.700000"
         dy="2.000000"
         id="feOffset106" />
      <feComposite
         result="comp1"
         operator="in"
         in="offset"
         in2="flood"
         id="feComposite106" />
      <feComposite
         result="comp2"
         operator="over"
         in="SourceGraphic"
         in2="comp1"
         id="feComposite107" />
    </filter>
    <filter
       style="color-interpolation-filters:sRGB"
       inkscape:label="Drop Shadow"
       id="filter109"
       x="-0.090669752"
       y="-0.082428188"
       width="1.1893676"
       height="1.1734426">
      <feFlood
         result="flood"
         in="SourceGraphic"
         flood-opacity="0.486275"
         flood-color="rgb(0,0,0)"
         id="feFlood107" />
      <feGaussianBlur
         result="blur"
         in="SourceGraphic"
         stdDeviation="8.000000"
         id="feGaussianBlur107" />
      <feOffset
         result="offset"
         in="blur"
         dx="1.700000"
         dy="2.000000"
         id="feOffset107" />
      <feComposite
         result="comp1"
         operator="in"
         in="offset"
         in2="flood"
         id="feComposite108" />
      <feComposite
         result="comp2"
         operator="over"
         in="SourceGraphic"
         in2="comp1"
         id="feComposite109" />
    </filter>
  </defs>
  <g
     inkscape:label="Layer 1"
     inkscape:groupmode="layer"
     id="layer1"
     transform="translate(46.709628,-10.373365)">
    <path
       id="path1"
       style="color:#000000;fill:url(#linearGradient4);fill-opacity:1;stroke-linejoin:round;-inkscape-stroke:none;filter:url(#filter109)"
       d="m 78.369741,-47.59037 a 5.2920292,5.2920292 0 0 0 -4.582149,2.644283 L 47.529247,0.53537463 H -22.216884 A 5.292179,5.292179 0 0 0 -26.800583,8.4728746 L 8.0732571,68.874873 -26.800583,129.27687 a 5.2920292,5.2920292 0 0 0 4.584216,7.9375 h 69.745614 l 26.257828,45.48095 a 5.292179,5.292179 0 0 0 9.164299,0 l 26.258866,-45.48095 h 69.74716 a 5.2920292,5.2920292 0 0 0 4.58215,-7.9375 L 148.66674,68.874356 183.53903,8.4728746 A 5.292179,5.292179 0 0 0 178.95688,0.53537463 H 109.21075 L 82.951374,-44.946087 a 5.2920292,5.2920292 0 0 0 -4.581633,-2.644283 z m 0,15.872933 18.621086,32.25281163 H 78.369225 59.748656 Z m -91.422326,42.836662 h 54.47161 L 23.494538,42.165392 14.182962,58.293089 Z m 66.690503,0 H 78.369225 103.10157 L 124.08065,47.456542 136.4463,68.874356 124.08013,90.293203 103.10105,126.63 H 78.369741 53.637401 L 32.65832,90.293203 20.292666,68.874873 32.65832,47.456542 Z m 61.683572,0 h 54.46954 L 142.55652,58.291022 133.2465,42.165392 Z M 14.182962,79.456656 23.494021,95.583837 41.418509,126.63 h -54.471094 z m 128.373558,0.001 L 169.79155,126.63 H 115.32097 L 133.24598,95.583837 Z M 59.748139,137.21437 H 78.369741 96.99031 l -18.621085,32.2523 z"
       transform="translate(-3.6162755e-4,77.163735)" />
    <path
       sodipodi:type="star"
       style="fill:url(#linearGradient7);fill-opacity:1;stroke:none;stroke-width:10.5841;stroke-linejoin:round;stroke-dasharray:none;filter:url(#filter107)"
       id="path5"
       inkscape:flatsided="true"
       sodipodi:sides="6"
       sodipodi:cx="293.16144"
       sodipodi:cy="352.40131"
       sodipodi:r1="194.34521"
       sodipodi:r2="97.172607"
       sodipodi:arg1="0.55114295"
       sodipodi:arg2="1.0747417"
       inkscape:rounded="0"
       inkscape:randomized="0"
       d="M 458.72929,454.17237 287.80904,546.6728 122.24119,444.90174 l 5.3524,-194.2715 170.92025,-92.50043 165.56785,101.77106 z"
       transform="matrix(0.21151287,0.11680136,-0.11506606,0.21470266,57.334182,35.616766)" />
  </g>
</svg>
